<svg width="18" height="19" viewBox="0 0 18 19" fill="none" xmlns="http://www.w3.org/2000/svg">
<path fill-rule="evenodd" clip-rule="evenodd" d="M9 18.2144C4.032 18.2144 0 14.1914 0 9.21436C0 4.24636 4.032 0.214355 9 0.214355C13.977 0.214355 18 4.24636 18 9.21436C18 14.1914 13.977 18.2144 9 18.2144ZM11.8709 12.5534C11.9789 12.6164 12.0959 12.6524 12.2219 12.6524C12.4469 12.6524 12.6719 12.5354 12.7979 12.3194C12.9869 12.0044 12.8879 11.5904 12.5639 11.3924L9.35991 9.48436V5.32636C9.35991 4.94836 9.05391 4.65136 8.68491 4.65136C8.31591 4.65136 8.00991 4.94836 8.00991 5.32636V9.87136C8.00991 10.1054 8.13591 10.3214 8.34291 10.4474L11.8709 12.5534Z" fill="#FD975E"/>
</svg>
