<svg width="24" height="18" viewBox="0 0 24 18" xmlns="http://www.w3.org/2000/svg">
<path d="M23.87 8.60519C23.87 8.54642 23.87 8.47963 23.8673 8.40215C23.8647 8.18575 23.8593 7.94264 23.854 7.6835C23.8327 6.93812 23.7954 6.19542 23.7368 5.49546C23.6569 4.53102 23.5397 3.72687 23.3798 3.12309C23.2111 2.49299 22.8805 1.91833 22.4209 1.45654C21.9614 0.994752 21.389 0.66201 20.761 0.491572C20.0071 0.288532 18.5312 0.162967 16.4532 0.0854908C15.4649 0.0480886 14.4072 0.0240442 13.3496 0.0106862C12.9793 0.00534302 12.6356 0.00267159 12.3266 0H11.5434C11.2344 0.00267159 10.8907 0.00534302 10.5204 0.0106862C9.46275 0.0240442 8.40512 0.0480886 7.41675 0.0854908C5.33878 0.165639 3.86023 0.291203 3.10896 0.491572C2.48078 0.661591 1.90819 0.994193 1.44857 1.45605C0.98895 1.9179 0.65845 2.49279 0.490188 3.12309C0.32768 3.72687 0.213125 4.53102 0.133203 5.49546C0.0745938 6.19542 0.0372968 6.93812 0.0159843 7.6835C0.00799215 7.94264 0.00532808 8.18575 0.00266402 8.40215C0.00266402 8.47963 0 8.54642 0 8.60519V8.7548C0 8.81358 -4.06901e-08 8.88037 0.00266402 8.95784C0.00532808 9.17424 0.0106562 9.41736 0.0159843 9.6765C0.0372968 10.4219 0.0745938 11.1646 0.133203 11.8645C0.213125 12.829 0.330344 13.6331 0.490188 14.2369C0.831188 15.5166 1.83287 16.5265 3.10896 16.8684C3.86023 17.0715 5.33878 17.197 7.41675 17.2745C8.40512 17.3119 9.46275 17.336 10.5204 17.3493C10.8907 17.3547 11.2344 17.3573 11.5434 17.36H12.3266C12.6356 17.3573 12.9793 17.3547 13.3496 17.3493C14.4072 17.336 15.4649 17.3119 16.4532 17.2745C18.5312 17.1944 20.0098 17.0688 20.761 16.8684C22.0371 16.5265 23.0388 15.5193 23.3798 14.2369C23.5423 13.6331 23.6569 12.829 23.7368 11.8645C23.7954 11.1646 23.8327 10.4219 23.854 9.6765C23.862 9.41736 23.8647 9.17424 23.8673 8.95784C23.8673 8.88037 23.87 8.81358 23.87 8.7548V8.60519ZM21.9519 8.74412C21.9519 8.80022 21.9519 8.86167 21.9492 8.9338C21.9465 9.14218 21.9412 9.37194 21.9359 9.6204C21.9172 10.331 21.8799 11.0417 21.824 11.7016C21.7521 12.5618 21.6508 13.2671 21.5256 13.74C21.3605 14.3571 20.8756 14.846 20.2629 15.009C19.7034 15.1586 18.2941 15.2788 16.3787 15.351C15.4089 15.3884 14.3646 15.4124 13.323 15.4258C12.958 15.4311 12.6197 15.4338 12.316 15.4338H11.554L10.547 15.4258C9.50537 15.4124 8.46373 15.3884 7.49134 15.351C5.57588 15.2762 4.16393 15.1586 3.60714 15.009C2.99441 14.8434 2.50955 14.3571 2.34438 13.74C2.21916 13.2671 2.11793 12.5618 2.046 11.7016C1.99005 11.0417 1.95542 10.331 1.93411 9.6204C1.92612 9.37194 1.92345 9.13951 1.92079 8.9338C1.92079 8.86167 1.91813 8.79755 1.91813 8.74412V8.61588C1.91813 8.55978 1.91813 8.49833 1.92079 8.4262C1.92345 8.21781 1.92878 7.98806 1.93411 7.7396C1.95276 7.02895 1.99005 6.31831 2.046 5.65843C2.11793 4.79818 2.21916 4.09288 2.34438 3.62001C2.50955 3.00287 2.99441 2.51397 3.60714 2.351C4.16659 2.20139 5.57588 2.08117 7.49134 2.00904C8.46106 1.97163 9.50537 1.94759 10.547 1.93423C10.912 1.92889 11.2503 1.92622 11.554 1.92622H12.316L13.323 1.93423C14.3646 1.94759 15.4063 1.97163 16.3787 2.00904C18.2941 2.08384 19.7061 2.20139 20.2629 2.351C20.8756 2.51664 21.3605 3.00287 21.5256 3.62001C21.6508 4.09288 21.7521 4.79818 21.824 5.65843C21.8799 6.31831 21.9146 7.02895 21.9359 7.7396C21.9439 7.98806 21.9465 8.22048 21.9492 8.4262C21.9492 8.49833 21.9519 8.56245 21.9519 8.61588V8.74412ZM9.56398 12.2599L15.7446 8.65328L9.56398 5.10007V12.2599Z"/>
</svg>
