<svg width="15" height="19" viewBox="0 0 15 19" fill="none" xmlns="http://www.w3.org/2000/svg">
<path fill-rule="evenodd" clip-rule="evenodd" d="M3.7839 1.00369C6.12484 -0.356494 9.00223 -0.33272 11.3212 1.06596C13.6174 2.49314 15.0129 5.04022 14.9999 7.78016C14.9465 10.5021 13.45 13.0608 11.5795 15.0388C10.4999 16.1855 9.29214 17.1996 7.98095 18.0601C7.84591 18.1382 7.69799 18.1905 7.54449 18.2144C7.39676 18.2081 7.25288 18.1644 7.12585 18.0874C5.12406 16.7943 3.36788 15.1437 1.9418 13.215C0.748492 11.6051 0.0705386 9.66006 1.24472e-06 7.64407C-0.00154788 4.89886 1.44297 2.36387 3.7839 1.00369ZM5.13661 8.78016C5.53038 9.75094 6.45985 10.3842 7.49102 10.3842C8.16656 10.389 8.81594 10.1184 9.29447 9.63269C9.77299 9.14696 10.0409 8.48643 10.0385 7.79829C10.0421 6.74792 9.42373 5.79892 8.47209 5.39442C7.52045 4.98991 6.42327 5.20967 5.69285 5.9511C4.96242 6.69254 4.74283 7.80938 5.13661 8.78016Z" fill="#FF650F"/>
</svg>
