<svg width="17" height="18" viewBox="0 0 17 18" xmlns="http://www.w3.org/2000/svg">
<path fill-rule="evenodd" clip-rule="evenodd" d="M0.96018 5.19701C2.24994 2.10001 5.27189 0.0791455 8.6267 0.0701849C12.2424 0.0511448 15.4574 2.36711 16.5844 5.8027C17.7115 9.23828 16.4932 13.0086 13.5689 15.1351C10.6446 17.2616 6.68231 17.2584 3.76141 15.1273L1.15694 17.7317C0.892141 17.9962 0.463159 17.9962 0.198356 17.7317C-0.0661185 17.4669 -0.0661185 17.0379 0.198356 16.7731L2.72143 14.2501C0.364664 11.8625 -0.329577 8.294 0.96018 5.19701ZM2.16942 11.0749C3.25233 13.6845 5.80136 15.3841 8.62672 15.3805V15.3443C12.4613 15.3394 15.5743 12.2426 15.5991 8.40809C15.6028 5.58272 13.9031 3.0337 11.2935 1.95079C8.68393 0.86788 5.67891 1.46461 3.68107 3.46244C1.68324 5.46028 1.08651 8.4653 2.16942 11.0749Z" fill="#FF650F"/>
</svg>
