<svg width="20" height="19" viewBox="0 0 20 19" fill="none" xmlns="http://www.w3.org/2000/svg">
<path d="M18.8283 0.684137L18.8283 0.684148C18.9332 0.793955 19.0047 0.931309 19.0344 1.0802C19.0642 1.22892 19.0511 1.38304 18.9967 1.5246C18.9966 1.52476 18.9966 1.52491 18.9965 1.52506L12.9899 18.0433L18.8283 0.684137ZM18.8283 0.684137L18.8274 0.683241M18.8283 0.684137L18.8274 0.683241M18.8274 0.683241C18.7193 0.575663 18.5828 0.50118 18.4338 0.468549C18.2849 0.435929 18.1298 0.44649 17.9867 0.49899V0.49899L17.9865 0.499041L1.46749 6.50596L1.46749 6.50596M18.8274 0.683241L1.46749 6.50596M1.46749 6.50596L1.46684 6.5062M1.46749 6.50596L1.46684 6.5062M1.46684 6.5062C1.31489 6.56383 1.18407 6.66633 1.09176 6.80008C0.999441 6.93383 0.95 7.0925 0.95 7.25501C0.95 7.41753 0.999441 7.5762 1.09176 7.70995C1.18399 7.84357 1.31465 7.946 1.46642 8.00367C1.46656 8.00372 1.4667 8.00378 1.46684 8.00383L8.65447 10.8789L11.5298 18.0673L1.46684 6.5062ZM12.2506 18.5719L12.2506 18.5718C12.0943 18.5673 11.9428 18.517 11.8147 18.4274C11.6867 18.3377 11.5876 18.2126 11.5299 18.0674L12.2506 18.5719ZM12.2506 18.5719L12.2531 18.5718M12.2506 18.5719L12.2531 18.5718M12.2531 18.5718C12.4149 18.5685 12.572 18.5162 12.7035 18.4219M12.2531 18.5718L12.7035 18.4219M12.7035 18.4219C12.835 18.3275 12.9348 18.1956 12.9899 18.0434L12.7035 18.4219ZM13.7892 6.85111L13.8245 6.81575L13.7892 6.7804L12.7304 5.72167L12.6951 5.68632L12.6597 5.72167L9.05648 9.32492L3.98187 7.26154L16.9219 2.58896L12.2498 15.5277L10.2158 10.4245L13.7892 6.85111Z" fill="white" stroke="white" stroke-width="0.1"/>
</svg>
